<svg version="1.1" viewBox="0.0 0.0 393.3937007874016 267.8057742782152" fill="none" stroke="none" stroke-linecap="square" stroke-miterlimit="10" xmlns:xlink="http://www.w3.org/1999/xlink" xmlns="http://www.w3.org/2000/svg"><clipPath id="p.0"><path d="m0 0l393.3937 0l0 267.8058l-393.3937 0l0 -267.8058z" clip-rule="nonzero"/></clipPath><g clip-path="url(#p.0)"><path fill="#000000" fill-opacity="0.0" d="m0 0l393.3937 0l0 267.8058l-393.3937 0z" fill-rule="evenodd"/><path fill="#ffffff" d="m187.26007 179.26125l0 0c15.376999 -39.76451 68.672745 -52.83638 119.03937 -29.196854c50.36664 23.639526 78.73132 75.03865 63.35434 114.80316l0 0c-12.765015 -32.767 -41.3945 -61.962402 -77.275604 -78.80316c-35.881073 -16.84076 -74.825806 -19.361221 -105.1181 -6.8031464z" fill-rule="evenodd"/><path fill="#ffffff" d="m186.95013 63.59644l0 0c27.535965 -30.301735 90.730804 -9.819645 141.1496 45.748028c50.418823 55.567673 68.969055 125.17859 41.433075 155.48033l0 0c-5.8576965 -41.021317 -30.44394 -88.46095 -66.36221 -128.04726c-35.918243 -39.58631 -78.97624 -66.69884 -116.22046 -73.18111z" fill-rule="evenodd"/><path fill="#ffffff" d="m280.9611 95.85826l0 0c1.8310547E-4 -3.0517578E-4 5.79834E-4 -3.9672852E-4 8.8500977E-4 -2.1362305E-4l65.00699 40.661636c1.5258789E-4 7.6293945E-5 2.4414062E-4 2.2888184E-4 3.0517578E-4 3.9672852E-4c3.0517578E-5 1.6784668E-4 0 3.3569336E-4 -9.1552734E-5 4.8828125E-4l-24.315155 40.56604c-1.8310547E-4 3.0517578E-4 -5.79834E-4 3.9672852E-4 -8.8500977E-4 1.9836426E-4l-65.00699 -40.66162l0 0c-3.0517578E-4 -1.8310547E-4 -3.9672852E-4 -5.79834E-4 -2.1362305E-4 -8.8500977E-4z" fill-rule="evenodd"/><path fill="#ffffff" d="m176.54068 81.67191l0 0c0 -4.6539307E-4 3.8146973E-4 -8.544922E-4 8.544922E-4 -8.544922E-4l102.487335 8.544922E-4c2.1362305E-4 0 4.5776367E-4 9.1552734E-5 6.1035156E-4 2.5177002E-4c1.5258789E-4 1.6021729E-4 2.4414062E-4 3.8146973E-4 2.4414062E-4 6.0272217E-4l-8.544922E-4 63.904655c0 4.7302246E-4 -3.6621094E-4 8.544922E-4 -8.544922E-4 8.544922E-4l-102.487335 -8.544922E-4l0 0c-4.7302246E-4 0 -8.544922E-4 -3.8146973E-4 -8.544922E-4 -8.544922E-4z" fill-rule="evenodd"/><path fill="#ffffff" d="m176.54083 53.386024l0 0c0 -2.4795532E-4 1.9836426E-4 -4.4631958E-4 4.4250488E-4 -4.4631958E-4l53.79483 4.4631958E-4c1.0681152E-4 0 2.2888184E-4 4.9591064E-5 3.0517578E-4 1.335144E-4c9.1552734E-5 8.392334E-5 1.373291E-4 1.9836426E-4 1.373291E-4 3.1661987E-4l-4.4250488E-4 16.09404c0 2.4414062E-4 -1.9836426E-4 4.5013428E-4 -4.5776367E-4 4.5013428E-4l-53.794815 -4.5013428E-4l0 0c-2.593994E-4 0 -4.5776367E-4 -1.9836426E-4 -4.5776367E-4 -4.5013428E-4z" fill-rule="evenodd"/><path fill="#ffffff" d="m206.787 4.093728l0 0c4.496765 -2.2609034 9.975281 -0.44854975 12.236603 4.048005l0 0l0 0c1.0859222 2.1593208 1.2695465 4.6615047 0.5104675 6.9560986c-0.759079 2.2945938 -2.3986664 4.193636 -4.55809 5.2793617l-198.64491 99.875534c-4.496766 2.2609024 -9.975281 0.44854736 -12.236604 -4.048004l0 0l0 0c-2.2613235 -4.496559 -0.44913912 -9.974556 4.0476265 -12.235458z" fill-rule="evenodd"/><path fill="#ffffff" d="m211.28824 205.85655l0 0c4.4707336 2.312973 6.219513 7.812042 3.9060059 12.282501l0 0l0 0c-1.1109924 2.1468048 -3.0293274 3.7644196 -5.333023 4.4970245c-2.3036957 0.732605 -4.804016 0.5201874 -6.950943 -0.59054565l-194.26672 -100.50585c-4.470735 -2.3129807 -6.219514 -7.81205 -3.9060059 -12.282509l0 0l0 0c2.313508 -4.4704666 7.813224 -6.219452 12.283958 -3.9064713z" fill-rule="evenodd"/><path fill="#ffffff" d="m219.32283 212.6483l0 0c0 5.035782 -4.082306 9.118103 -9.118103 9.118103l0 0l0 0c-2.418274 0 -4.737503 -0.9606476 -6.4474792 -2.6706238c-1.7099762 -1.7099762 -2.670639 -4.0292053 -2.670639 -6.4474792l0 -199.3071c0 -5.0357933 4.082321 -9.118111 9.118118 -9.118111l0 0l0 0c5.035797 0 9.118103 4.0823174 9.118103 9.118111z" fill-rule="evenodd"/><path fill="#ffffff" d="m198.49326 21.86878l0 0c1.5258789E-4 -7.8201294E-5 3.3569336E-4 -1.9073486E-5 4.119873E-4 1.335144E-4l17.07045 33.039238c4.5776367E-5 7.247925E-5 4.5776367E-5 1.6021729E-4 3.0517578E-5 2.3651123E-4c-3.0517578E-5 8.010864E-5 -9.1552734E-5 1.449585E-4 -1.5258789E-4 1.8310547E-4l-163.46445 84.44052c-1.5258789E-4 7.6293945E-5 -3.3950806E-4 3.0517578E-5 -4.15802E-4 -1.2207031E-4l-17.07045 -33.039246l0 0c-8.010864E-5 -1.5258789E-4 -1.9073486E-5 -3.3569336E-4 1.335144E-4 -4.119873E-4z" fill-rule="evenodd"/><path fill="#ffffff" d="m206.49147 174.00626l0 0c1.5258789E-4 7.6293945E-5 2.1362305E-4 2.746582E-4 1.2207031E-4 4.119873E-4l-17.7639 32.660995c-3.0517578E-5 7.6293945E-5 -1.0681152E-4 1.373291E-4 -1.8310547E-4 1.5258789E-4c-7.6293945E-5 3.0517578E-5 -1.6784668E-4 1.5258789E-5 -2.2888184E-4 -1.5258789E-5l-161.60588 -87.968636c-1.487732E-4 -7.6293945E-5 -2.0599365E-4 -2.670288E-4 -1.2397766E-4 -4.196167E-4l17.763905 -32.660995l0 0c8.010864E-5 -1.5258789E-4 2.708435E-4 -2.0599365E-4 4.196167E-4 -1.2207031E-4z" fill-rule="evenodd"/><path fill="#ffffff" d="m169.32545 35.527645l0 0c0 -1.7166138E-4 1.373291E-4 -3.0899048E-4 3.2043457E-4 -3.0899048E-4l37.16504 3.0899048E-4c7.6293945E-5 0 1.6784668E-4 3.4332275E-5 2.1362305E-4 9.1552734E-5c6.1035156E-5 5.722046E-5 9.1552734E-5 1.373291E-4 9.1552734E-5 2.1743774E-4l-3.0517578E-4 168.09418c0 1.6784668E-4 -1.373291E-4 3.0517578E-4 -3.0517578E-4 3.0517578E-4l-37.165054 -3.0517578E-4l0 0c-1.6784668E-4 0 -3.0517578E-4 -1.373291E-4 -3.0517578E-4 -3.0517578E-4z" fill-rule="evenodd"/><path fill="#ffffff" d="m91.54593 158.45407l0 0c-3.8146973E-4 0 -7.019043E-4 -3.2043457E-4 -7.019043E-4 -7.019043E-4l7.019043E-4 -84.18828c0 -1.8310547E-4 7.6293945E-5 -3.6621094E-4 2.0599365E-4 -4.9591064E-4c1.373291E-4 -1.296997E-4 3.1280518E-4 -2.0599365E-4 4.9591064E-4 -2.0599365E-4l91.84183 7.019043E-4c3.8146973E-4 0 7.019043E-4 3.1280518E-4 7.019043E-4 7.019043E-4l-7.019043E-4 84.18828l0 0c0 3.8146973E-4 -3.2043457E-4 7.019043E-4 -7.019043E-4 7.019043E-4z" fill-rule="evenodd"/><path fill="#ffffff" d="m201.05249 64.66929l0 0c0 -1.9836426E-4 1.6784668E-4 -3.5858154E-4 3.6621094E-4 -3.5858154E-4l43.62169 3.5858154E-4c9.1552734E-5 0 1.8310547E-4 3.8146973E-5 2.593994E-4 1.0681152E-4c6.1035156E-5 6.866455E-5 1.0681152E-4 1.6021729E-4 1.0681152E-4 2.593994E-4l-3.6621094E-4 30.298851c0 1.9836426E-4 -1.6784668E-4 3.5858154E-4 -3.6621094E-4 3.5858154E-4l-43.62169 -3.5858154E-4l0 0c-1.9836426E-4 0 -3.6621094E-4 -1.6784668E-4 -3.6621094E-4 -3.6621094E-4z" fill-rule="evenodd"/></g></svg>