<svg version="1.1" viewBox="0.0 0.0 218.7795275590551 221.71653543307087" fill="none" stroke="none" stroke-linecap="square" stroke-miterlimit="10" xmlns:xlink="http://www.w3.org/1999/xlink" xmlns="http://www.w3.org/2000/svg"><clipPath id="p.0"><path d="m0 0l218.77953 0l0 221.71654l-218.77953 0l0 -221.71654z" clip-rule="nonzero"/></clipPath><g clip-path="url(#p.0)"><path fill="#000000" fill-opacity="0.0" d="m0 0l218.77953 0l0 221.71654l-218.77953 0z" fill-rule="evenodd"/><path fill="#ffffff" d="m78.82864 90.167694l0 0c-5.657791 5.6577835 -14.830875 5.6577835 -20.488663 0l-30.786926 -30.786926l0 0c-2.7169666 -2.7169685 -4.2433414 -6.4019623 -4.2433414 -10.244335c0 -3.842369 1.5263748 -7.5273666 4.2433414 -10.244331l10.188499 -10.188499c5.6577873 -5.657789 14.830875 -5.657789 20.488667 0l30.786922 30.786926c5.657791 5.6577873 5.657791 14.830875 0 20.488667z" fill-rule="evenodd"/><path fill="#ffffff" d="m102.188934 74.559105l0 0c-7.998741 0 -14.483009 -6.4842606 -14.483009 -14.483002l0 -43.53793l0 0c0 -3.8411322 1.5258865 -7.5249405 4.241974 -10.241032c2.716095 -2.71609 6.3999023 -4.2419734 10.241035 -4.2419734l14.404068 0c7.998741 0 14.483002 6.4842615 14.483002 14.483005l0 43.53793c0 7.998741 -6.4842606 14.483002 -14.483002 14.483002z" fill-rule="evenodd"/><path fill="#ffffff" d="m102.188934 219.66147l0 0c-7.998741 0 -14.483009 -6.484268 -14.483009 -14.483002l0 -43.537933l0 0c0 -3.8411255 1.5258865 -7.524933 4.241974 -10.241028c2.716095 -2.716095 6.3999023 -4.241974 10.241035 -4.241974l14.404068 0c7.998741 0 14.483002 6.484268 14.483002 14.483002l0 43.537933c0 7.9987335 -6.4842606 14.483002 -14.483002 14.483002z" fill-rule="evenodd"/><path fill="#ffffff" d="m216.27286 118.060356l0 0c0 7.998741 -6.484268 14.483009 -14.483002 14.483009l-43.537933 0l0 0c-3.8411255 0 -7.524933 -1.5258942 -10.241028 -4.241974c-2.716095 -2.716095 -4.241974 -6.39991 -4.241974 -10.241035l0 -14.404076c0 -7.998741 6.484268 -14.483002 14.483002 -14.483002l43.537933 0c7.9987335 0 14.483002 6.4842606 14.483002 14.483002z" fill-rule="evenodd"/><path fill="#ffffff" d="m75.013016 118.060356l0 0c0 7.998741 -6.4842606 14.483009 -14.483006 14.483009l-43.537926 0l0 0c-3.8411322 0 -7.5249405 -1.5258942 -10.241031 -4.241974c-2.7160902 -2.716095 -4.241974 -6.39991 -4.241974 -10.241035l0 -14.404076c0 -7.998741 6.4842625 -14.483002 14.483005 -14.483002l43.537926 0c7.998745 0 14.483006 6.4842606 14.483006 14.483002z" fill-rule="evenodd"/><path fill="#ffffff" d="m183.65279 191.0312l0 0c-5.657776 5.657791 -14.830872 5.657791 -20.488663 0l-30.786926 -30.786926l0 0c-2.7169647 -2.7169647 -4.243332 -6.4019623 -4.243332 -10.244324c0 -3.8423767 1.5263672 -7.5273743 4.243332 -10.244339l10.188507 -10.188492c5.657791 -5.657791 14.830872 -5.657791 20.488663 0l30.786926 30.786926c5.657791 5.657776 5.657791 14.830872 0 20.488663z" fill-rule="evenodd"/><path fill="#ffffff" d="m128.84439 79.979195l0 0c-5.6577835 -5.657791 -5.6577835 -14.830879 0 -20.488667l30.786926 -30.786926l0 0c2.7169647 -2.7169666 6.4019623 -4.2433414 10.244339 -4.2433414c3.8423615 0 7.527359 1.5263748 10.244324 4.2433414l10.188507 10.188499c5.657791 5.6577873 5.657791 14.830875 0 20.488667l-30.786926 30.786926c-5.657791 5.6577835 -14.830872 5.6577835 -20.488663 0z" fill-rule="evenodd"/><path fill="#ffffff" d="m27.553055 184.21016l0 0c-5.657789 -5.657791 -5.657789 -14.830872 0 -20.488663l30.786926 -30.786926l0 0c2.7169647 -2.7169647 6.4019623 -4.243347 10.244331 -4.243347c3.842369 0 7.5273666 1.5263824 10.244331 4.243347l10.188499 10.188507c5.657791 5.657791 5.657791 14.830872 0 20.488663l-30.786922 30.786926c-5.657791 5.657791 -14.830879 5.657791 -20.488667 0z" fill-rule="evenodd"/><path fill="#ffffff" d="m34.540684 110.85827l0 0c0 -42.565063 33.51166 -77.07086 74.85039 -77.07086l0 0c19.851555 0 38.890053 8.119942 52.927223 22.573532c14.03717 14.453594 21.923172 34.056866 21.923172 54.497334l0 0c0 42.565056 -33.511658 77.07087 -74.850395 77.07087l0 0c-41.33873 0 -74.85039 -34.505814 -74.85039 -77.07087zm40.943165 0c0 19.952782 15.180786 36.127693 33.907227 36.127693c18.726448 0 33.907234 -16.174911 33.907234 -36.127693c0 -19.952782 -15.180786 -36.1277 -33.907234 -36.1277l0 0c-18.72644 0 -33.907227 16.17492 -33.907227 36.1277z" fill-rule="evenodd"/></g></svg>